<svg width="175" height="48" viewBox="0 0 175 48" fill="none" xmlns="http://www.w3.org/2000/svg">
<path d="M47.125 48H0.78125V3.1875H47.125V9.59375H7.1875V41.5938H47.125V48ZM41.6875 28.8125H10.375V22.4062H41.6875V28.8125ZM60.7188 48H54.3125V12.8125H78.3125C80.7292 12.8125 83 13.2812 85.125 14.2188C87.25 15.1354 89.1042 16.3958 90.6875 18C92.2708 19.5833 93.5208 21.4479 94.4375 23.5938C95.3542 25.7188 95.8125 27.9896 95.8125 30.4062V48H89.4062V30.4062C89.4062 28.8646 89.1146 27.4167 88.5312 26.0625C87.9479 24.7083 87.1562 23.5312 86.1562 22.5312C85.1562 21.5104 83.9792 20.7083 82.625 20.125C81.2917 19.5208 79.8542 19.2083 78.3125 19.1875H60.7188V48ZM146.125 48H136.969L118.281 32.9688L110.844 39.0312V48H104.438V0H110.844V32.25L134.156 12.8125H142.844L122.938 29.125L146.125 48ZM157.938 4.8125C157.938 5.47917 157.812 6.10417 157.562 6.6875C157.312 7.25 156.969 7.75 156.531 8.1875C156.094 8.625 155.583 8.96875 155 9.21875C154.417 9.46875 153.802 9.59375 153.156 9.59375C152.49 9.59375 151.865 9.46875 151.281 9.21875C150.698 8.96875 150.188 8.625 149.75 8.1875C149.312 7.75 148.969 7.25 148.719 6.6875C148.469 6.10417 148.344 5.47917 148.344 4.8125C148.344 4.16667 148.469 3.55208 148.719 2.96875C148.969 2.38542 149.312 1.875 149.75 1.4375C150.188 1 150.698 0.65625 151.281 0.40625C151.865 0.135417 152.49 0 153.156 0C153.802 0 154.417 0.135417 155 0.40625C155.583 0.65625 156.094 1 156.531 1.4375C156.969 1.875 157.312 2.38542 157.562 2.96875C157.812 3.55208 157.938 4.16667 157.938 4.8125ZM156.344 48H149.938V12.8125H156.344V48ZM174.094 43.1875C174.094 43.8542 173.958 44.4792 173.688 45.0625C173.438 45.6458 173.094 46.1562 172.656 46.5938C172.219 47.0312 171.708 47.375 171.125 47.625C170.542 47.875 169.927 48 169.281 48C168.615 48 167.99 47.875 167.406 47.625C166.844 47.375 166.344 47.0312 165.906 46.5938C165.469 46.1562 165.125 45.6458 164.875 45.0625C164.625 44.4792 164.5 43.8542 164.5 43.1875C164.5 42.5417 164.625 41.9271 164.875 41.3438C165.125 40.7604 165.469 40.25 165.906 39.8125C166.344 39.375 166.844 39.0312 167.406 38.7812C167.99 38.5312 168.615 38.4062 169.281 38.4062C169.927 38.4062 170.542 38.5312 171.125 38.7812C171.708 39.0312 172.219 39.375 172.656 39.8125C173.094 40.25 173.438 40.7604 173.688 41.3438C173.958 41.9271 174.094 42.5417 174.094 43.1875Z" fill="url(#paint0_linear_1_31)"/>
<defs>
<linearGradient id="paint0_linear_1_31" x1="86.5" y1="-2" x2="86" y2="58" gradientUnits="userSpaceOnUse">
<stop stop-color="#6200B3"/>
<stop offset="0.9999"/>
<stop offset="1" stop-color="#6200B3" stop-opacity="0"/>
</linearGradient>
</defs>
</svg>
